<?xml version="1.0" encoding="utf-8"?>
<!-- Generator: Adobe Illustrator 24.2.3, SVG Export Plug-In . SVG Version: 6.00 Build 0)  -->
<svg version="1.1" xmlns="http://www.w3.org/2000/svg" xmlns:xlink="http://www.w3.org/1999/xlink" x="0px" y="0px"
	 viewBox="0 0 1024 534" style="enable-background:new 0 0 1024 534;" xml:space="preserve">
<style type="text/css">
	.st0{fill:#F1F1F1;}
	.st1{fill:#CCEAD7;}
	.st2{fill:none;stroke:#CCEAD7;stroke-width:4;stroke-linecap:round;stroke-miterlimit:10;}
	.st3{fill:none;stroke:#009639;stroke-width:5;stroke-linecap:round;stroke-miterlimit:10;stroke-dasharray:2.500118e-02,10.0005;}
	.st4{fill:#E6E6E6;}
	.st5{fill:none;stroke:#E0E0E0;stroke-width:1.75;stroke-linecap:round;stroke-miterlimit:10;}
	.st6{fill:none;stroke:#666666;stroke-width:1.75;stroke-linecap:round;stroke-miterlimit:10;}
	.st7{fill:none;stroke:#009639;stroke-width:1.75;stroke-linecap:round;stroke-linejoin:round;stroke-miterlimit:10;}
	.st8{fill:none;stroke:#666666;stroke-width:1.75;stroke-linecap:round;stroke-linejoin:round;stroke-miterlimit:10;}
	.st9{fill:#343434;}
	.st10{fill:#FFFFFF;stroke:#666666;stroke-width:2.5;stroke-miterlimit:10;}
	.st11{fill:#FFFFFF;stroke:#666666;stroke-width:1.75;stroke-linecap:round;stroke-linejoin:round;stroke-miterlimit:10;}
	.st12{fill:#999999;}
	.st13{fill:#009639;}
	.st14{fill:#FFFFFF;}
	.st15{fill:#FFFFFF;stroke:#009639;stroke-width:2.5;stroke-miterlimit:10;}
	.st16{fill:none;stroke:#009639;stroke-width:1.75;stroke-miterlimit:10;}
	.st17{fill:none;stroke:#666666;stroke-width:2.5;stroke-linecap:round;stroke-linejoin:round;stroke-miterlimit:10;}
</style>
<g id="Background">
	<rect class="st0" width="1024" height="534"/>
</g>
<g id="art">
	<g>
		<g>
			<path class="st1" d="M577,175c0,2.8-2.2,5-5,5H452c-2.8,0-5-2.2-5-5V45c0-2.8,2.2-5,5-5h120c2.8,0,5,2.2,5,5V175z"/>
			<path class="st2" d="M577,175c0,2.8-2.2,5-5,5H452c-2.8,0-5-2.2-5-5V45c0-2.8,2.2-5,5-5h120c2.8,0,5,2.2,5,5V175z"/>
		</g>
		<g>
			<path class="st3" d="M577,175c0,2.8-2.2,5-5,5H452c-2.8,0-5-2.2-5-5V45c0-2.8,2.2-5,5-5h120c2.8,0,5,2.2,5,5V175z"/>
		</g>
	</g>
	<g>
		<g>
			<path class="st4" d="M577,455c0,2.8-2.2,5-5,5H452c-2.8,0-5-2.2-5-5V345c0-2.8,2.2-5,5-5h120c2.8,0,5,2.2,5,5V455z"/>
			<path class="st5" d="M577,455c0,2.8-2.2,5-5,5H452c-2.8,0-5-2.2-5-5V345c0-2.8,2.2-5,5-5h120c2.8,0,5,2.2,5,5V455z"/>
		</g>
		<g>
			<path class="st4" d="M577,455c0,2.8-2.2,5-5,5H452c-2.8,0-5-2.2-5-5V345c0-2.8,2.2-5,5-5h120c2.8,0,5,2.2,5,5V455z"/>
			<path class="st6" d="M577,455c0,2.8-2.2,5-5,5H452c-2.8,0-5-2.2-5-5V345c0-2.8,2.2-5,5-5h120c2.8,0,5,2.2,5,5V455z"/>
		</g>
	</g>
	<g>
		<line class="st7" x1="864" y1="110" x2="859.1" y2="105.1"/>
		<line class="st7" x1="864" y1="110" x2="859.1" y2="114.9"/>
	</g>
	<g>
		<g>
			<g>
				<polyline class="st8" points="437.5,95 207.5,95 160.5,95 				"/>
			</g>
		</g>
		<g>
			<line class="st8" x1="437.5" y1="95" x2="432.6" y2="90.1"/>
			<line class="st8" x1="437.5" y1="95" x2="432.6" y2="99.9"/>
		</g>
	</g>
	<g>
		<g>
			<g>
				<polyline class="st8" points="437.5,400 207.5,400 120,400 				"/>
			</g>
		</g>
		<g>
			<line class="st8" x1="437.5" y1="400" x2="432.6" y2="395.1"/>
			<line class="st8" x1="437.5" y1="400" x2="432.6" y2="404.9"/>
		</g>
	</g>
	<g>
		<g>
			<g>
				<line class="st7" x1="512" y1="190" x2="512" y2="227.3"/>
			</g>
		</g>
		<g>
			<line class="st7" x1="512" y1="190" x2="507.1" y2="194.9"/>
			<line class="st7" x1="512" y1="190" x2="516.9" y2="194.9"/>
		</g>
	</g>
	<g>
		<g>
			<g>
				<line class="st7" x1="512" y1="330" x2="512" y2="292.7"/>
			</g>
		</g>
		<g>
			<line class="st7" x1="512" y1="330" x2="507.1" y2="325.1"/>
			<line class="st7" x1="512" y1="330" x2="516.9" y2="325.1"/>
		</g>
	</g>
	<g>
		<path class="st9" d="M874.8,170h5c2.3,0,3.4,1.5,3.4,3.4c0,1.7-0.9,2.7-2.1,3.1c1.3,0.2,2.3,1.6,2.3,3.3c0,2.1-1.2,3.6-3.5,3.6
			h-5.2V170z M879.4,175.6c1.1,0,1.6-0.7,1.6-1.8c0-1-0.5-1.8-1.6-1.8H877v3.6H879.4z M879.4,181.4c1.2,0,1.8-0.7,1.8-1.9
			c0-1.1-0.6-1.9-1.8-1.9H877v3.9H879.4z"/>
		<path class="st9" d="M890.5,182.4c-0.6,0.8-1.6,1.2-2.5,1.2c-1.6,0-3-1.2-3-3.2c0-2.1,1.4-3.1,3-3.1c1,0,2,0.4,2.5,1.2V177
			c0-1.2-0.7-1.8-1.9-1.8c-0.9,0-1.7,0.3-2.4,1.1l-0.8-1.4c1-1,2.3-1.4,3.5-1.4c2,0,3.5,0.9,3.5,3.3v6.6h-2V182.4z M890.5,179.7
			c-0.4-0.7-1.1-1.1-1.8-1.1c-1,0-1.7,0.8-1.7,1.8c0,1,0.6,1.8,1.7,1.8c0.7,0,1.4-0.4,1.8-1.1V179.7z"/>
		<path class="st9" d="M898.6,173.4c1.4,0,2.4,0.6,2.9,1.3l-1,1.4c-0.5-0.6-1-0.9-1.7-0.9c-1.5,0-2.4,1.5-2.4,3.3
			c0,1.8,0.9,3.3,2.4,3.3c0.7,0,1.2-0.3,1.7-0.9l1,1.4c-0.6,0.7-1.5,1.3-2.9,1.3c-2.6,0-4.2-2.2-4.2-5.1
			C894.4,175.6,896,173.4,898.6,173.4z"/>
		<path class="st9" d="M906.3,179.3l-1.2,1.6v2.5h-2V170h2v8.4l3.4-4.7h2.3l-3.2,4.3l3.3,5.3h-2.3L906.3,179.3z"/>
		<path class="st9" d="M915.6,173.4c2.6,0,4,2.2,4,5.1v0.6h-6.1c0.1,1.6,1,2.8,2.5,2.8c0.8,0,1.6-0.4,2.2-1l1,1.2
			c-0.8,0.9-2,1.5-3.3,1.5c-2.7,0-4.3-2.1-4.3-5.1C911.4,175.7,913,173.4,915.6,173.4z M913.4,177.7h4.2c0-1.2-0.6-2.7-2.1-2.7
			C914.1,175.1,913.5,176.6,913.4,177.7z"/>
		<path class="st9" d="M926.7,176.8c0-1.1-0.5-1.6-1.4-1.6c-0.9,0-1.6,0.7-2,1.3v6.8h-2v-9.7h2v1.3c0.5-0.8,1.6-1.5,2.8-1.5
			c1.7,0,2.5,1,2.5,2.6v7.3h-2V176.8z"/>
		<path class="st9" d="M936.6,182.1c-0.6,1-1.5,1.5-2.5,1.5c-2.2,0-3.5-2-3.5-5.1c0-3.1,1.3-5.1,3.5-5.1c0.9,0,1.9,0.5,2.5,1.5v-5h2
			v13.3h-2V182.1z M936.6,176.5c-0.3-0.7-1.1-1.3-1.9-1.3c-1.4,0-2.1,1.4-2.1,3.3c0,1.8,0.7,3.3,2.1,3.3c0.8,0,1.5-0.6,1.9-1.3
			V176.5z"/>
		<path class="st9" d="M951.7,180.7h-4.6l-0.7,2.6h-2.3l4-13.3h2.7l4,13.3h-2.3L951.7,180.7z M947.6,178.7h3.7l-1.8-6.8L947.6,178.7
			z"/>
		<path class="st9" d="M955.9,187v-13.3h2v1.3c0.6-1,1.5-1.5,2.5-1.5c2.2,0,3.5,1.9,3.5,5.1c0,3.1-1.3,5.1-3.5,5.1
			c-1,0-1.9-0.5-2.5-1.5v5H955.9z M959.8,175.2c-0.8,0-1.5,0.6-1.9,1.3v4c0.3,0.7,1.1,1.3,1.9,1.3c1.4,0,2.1-1.5,2.1-3.3
			C961.9,176.6,961.2,175.2,959.8,175.2z"/>
		<path class="st9" d="M965.8,187v-13.3h2v1.3c0.6-1,1.5-1.5,2.5-1.5c2.2,0,3.5,1.9,3.5,5.1c0,3.1-1.3,5.1-3.5,5.1
			c-1,0-1.9-0.5-2.5-1.5v5H965.8z M969.7,175.2c-0.8,0-1.5,0.6-1.9,1.3v4c0.3,0.7,1.1,1.3,1.9,1.3c1.4,0,2.1-1.5,2.1-3.3
			C971.7,176.6,971.1,175.2,969.7,175.2z"/>
	</g>
	<g>
		<path class="st9" d="M83.5,232.3h2.2v8.9c0,1.8,0.9,2.7,2.4,2.7c1.5,0,2.4-1,2.4-2.7v-8.9h2.2v8.9c0,3-1.8,4.7-4.6,4.7
			c-2.9,0-4.6-1.7-4.6-4.7V232.3z"/>
		<path class="st9" d="M95.4,243.1c0.6,0.6,1.6,1.2,2.6,1.2s1.6-0.5,1.6-1.2c0-0.8-0.8-1.2-1.8-1.5c-1.4-0.5-3-1.1-3-3.1
			c0-1.5,1.2-2.8,3.3-2.8c1.3,0,2.4,0.5,3.2,1.2l-0.8,1.4c-0.5-0.6-1.3-1-2.3-1c-0.9,0-1.5,0.4-1.5,1.1c0,0.7,0.8,1.1,1.8,1.4
			c1.4,0.5,3,1.1,3,3.2c0,1.7-1.3,2.9-3.5,2.9c-1.5,0-2.7-0.5-3.5-1.4L95.4,243.1z"/>
		<path class="st9" d="M106.9,235.7c2.6,0,4,2.2,4,5.1v0.6h-6.1c0.1,1.6,1,2.8,2.5,2.8c0.8,0,1.6-0.4,2.2-1l1,1.2
			c-0.8,0.9-2,1.5-3.3,1.5c-2.7,0-4.3-2.1-4.3-5.1C102.8,238,104.4,235.7,106.9,235.7z M104.8,240h4.2c0-1.2-0.6-2.7-2.1-2.7
			C105.4,237.4,104.9,238.9,104.8,240z"/>
		<path class="st9" d="M112.8,236h2v1.4c0.6-0.9,1.6-1.6,2.7-1.6v2c-0.2,0-0.3-0.1-0.5-0.1c-0.8,0-1.7,0.6-2.1,1.3v6.6h-2V236z"/>
		<path class="st9" d="M54.8,264h-4.6l-0.7,2.6h-2.3l4-13.3h2.7l4,13.3h-2.3L54.8,264z M50.7,262h3.7l-1.8-6.8L50.7,262z"/>
		<path class="st9" d="M64.3,265.4c-0.5,0.8-1.6,1.5-2.8,1.5c-1.7,0-2.5-0.9-2.5-2.6V257h2v6.6c0,1.1,0.5,1.5,1.4,1.5
			c0.8,0,1.6-0.6,2-1.3V257h2v9.7h-2V265.4z"/>
		<path class="st9" d="M69,264.5v-5.8h-1.3V257H69v-2.6h2v2.6h1.6v1.7H71v5.3c0,0.7,0.2,1.1,0.7,1.1c0.3,0,0.6-0.1,0.8-0.3l0.5,1.5
			c-0.4,0.4-0.9,0.6-1.7,0.6C69.7,266.9,69,266.1,69,264.5z"/>
		<path class="st9" d="M79.7,260c0-1.1-0.5-1.5-1.4-1.5c-0.8,0-1.6,0.7-2,1.3v6.8h-2v-13.3h2v5c0.5-0.8,1.6-1.5,2.8-1.5
			c1.7,0,2.5,0.9,2.5,2.6v7.3h-2V260z"/>
		<path class="st9" d="M87.7,256.7c2.6,0,4,2.2,4,5.1v0.6h-6.1c0.1,1.6,1,2.8,2.5,2.8c0.8,0,1.6-0.4,2.2-1l1,1.2
			c-0.8,0.9-2,1.5-3.3,1.5c-2.7,0-4.3-2.1-4.3-5.1C83.5,259,85.1,256.7,87.7,256.7z M85.5,261h4.2c0-1.2-0.6-2.7-2.1-2.7
			C86.1,258.4,85.6,259.9,85.5,261z"/>
		<path class="st9" d="M98.8,260.1c0-1.1-0.5-1.6-1.4-1.6c-0.9,0-1.6,0.7-2,1.3v6.8h-2V257h2v1.3c0.5-0.8,1.6-1.5,2.8-1.5
			c1.7,0,2.5,1,2.5,2.6v7.3h-2V260.1z"/>
		<path class="st9" d="M103.5,264.5v-5.8h-1.3V257h1.3v-2.6h2v2.6h1.6v1.7h-1.6v5.3c0,0.7,0.2,1.1,0.7,1.1c0.3,0,0.6-0.1,0.8-0.3
			l0.5,1.5c-0.4,0.4-0.9,0.6-1.7,0.6C104.3,266.9,103.5,266.1,103.5,264.5z"/>
		<path class="st9" d="M108.6,254.1c0-0.7,0.6-1.3,1.3-1.3c0.7,0,1.2,0.6,1.2,1.3c0,0.7-0.6,1.2-1.2,1.2
			C109.2,255.4,108.6,254.8,108.6,254.1z M108.8,257h2v9.7h-2V257z"/>
		<path class="st9" d="M117,256.7c1.4,0,2.4,0.6,2.9,1.3l-1,1.4c-0.5-0.6-1-0.9-1.7-0.9c-1.5,0-2.4,1.5-2.4,3.3
			c0,1.8,0.9,3.3,2.4,3.3c0.7,0,1.2-0.3,1.7-0.9l1,1.4c-0.6,0.7-1.5,1.3-2.9,1.3c-2.6,0-4.2-2.2-4.2-5.1
			C112.7,258.9,114.4,256.7,117,256.7z"/>
		<path class="st9" d="M126.5,265.7c-0.6,0.8-1.6,1.2-2.5,1.2c-1.6,0-3-1.2-3-3.2c0-2.1,1.4-3.1,3-3.1c1,0,2,0.4,2.5,1.2v-1.4
			c0-1.2-0.7-1.8-1.9-1.8c-0.9,0-1.7,0.3-2.4,1.1l-0.8-1.4c1-1,2.3-1.4,3.5-1.4c2,0,3.5,0.9,3.5,3.3v6.6h-2V265.7z M126.5,263
			c-0.4-0.7-1.1-1.1-1.8-1.1c-1,0-1.7,0.8-1.7,1.8c0,1,0.6,1.8,1.7,1.8c0.7,0,1.4-0.4,1.8-1.1V263z"/>
		<path class="st9" d="M131.2,264.5v-5.8h-1.3V257h1.3v-2.6h2v2.6h1.6v1.7h-1.6v5.3c0,0.7,0.2,1.1,0.7,1.1c0.3,0,0.6-0.1,0.8-0.3
			l0.5,1.5c-0.4,0.4-0.9,0.6-1.7,0.6C131.9,266.9,131.2,266.1,131.2,264.5z"/>
		<path class="st9" d="M140.2,256.7c2.6,0,4,2.2,4,5.1v0.6H138c0.1,1.6,1,2.8,2.5,2.8c0.8,0,1.6-0.4,2.2-1l1,1.2
			c-0.8,0.9-2,1.5-3.3,1.5c-2.7,0-4.3-2.1-4.3-5.1C136,259,137.6,256.7,140.2,256.7z M138,261h4.2c0-1.2-0.6-2.7-2.1-2.7
			C138.6,258.4,138.1,259.9,138,261z"/>
		<path class="st9" d="M146.1,264.1c0.6,0.6,1.6,1.2,2.6,1.2s1.6-0.5,1.6-1.2c0-0.8-0.8-1.2-1.8-1.5c-1.4-0.5-3-1.1-3-3.1
			c0-1.5,1.2-2.8,3.3-2.8c1.3,0,2.4,0.5,3.2,1.2l-0.8,1.4c-0.5-0.6-1.3-1-2.3-1c-0.9,0-1.5,0.4-1.5,1.1c0,0.7,0.8,1.1,1.8,1.4
			c1.4,0.5,3,1.1,3,3.2c0,1.7-1.3,2.9-3.5,2.9c-1.5,0-2.7-0.5-3.5-1.4L146.1,264.1z"/>
		<path class="st9" d="M38.8,274.3h4c3.6,0,5.6,2.8,5.6,6.7s-2,6.7-5.6,6.7h-4V274.3z M42.7,285.7c2.2,0,3.3-2,3.3-4.7
			c0-2.8-1.1-4.7-3.3-4.7H41v9.4H42.7z"/>
		<path class="st9" d="M50.1,275.1c0-0.7,0.6-1.3,1.3-1.3c0.7,0,1.2,0.6,1.2,1.3c0,0.7-0.6,1.2-1.2,1.2
			C50.6,276.4,50.1,275.8,50.1,275.1z M50.3,278h2v9.7h-2V278z"/>
		<path class="st9" d="M54.7,278h2v1.4c0.6-0.9,1.6-1.6,2.7-1.6v2c-0.2,0-0.3-0.1-0.5-0.1c-0.8,0-1.7,0.6-2.1,1.3v6.6h-2V278z"/>
		<path class="st9" d="M64.5,277.7c2.6,0,4,2.2,4,5.1v0.6h-6.1c0.1,1.6,1,2.8,2.5,2.8c0.8,0,1.6-0.4,2.2-1l1,1.2
			c-0.8,0.9-2,1.5-3.3,1.5c-2.7,0-4.3-2.1-4.3-5.1C60.4,280,61.9,277.7,64.5,277.7z M62.4,282h4.2c0-1.2-0.6-2.7-2.1-2.7
			C63,279.4,62.4,280.9,62.4,282z"/>
		<path class="st9" d="M74.1,277.7c1.4,0,2.4,0.6,2.9,1.3l-1,1.4c-0.5-0.6-1-0.9-1.7-0.9c-1.5,0-2.4,1.5-2.4,3.3
			c0,1.8,0.9,3.3,2.4,3.3c0.7,0,1.2-0.3,1.7-0.9l1,1.4c-0.6,0.7-1.5,1.3-2.9,1.3c-2.6,0-4.2-2.2-4.2-5.1
			C69.8,279.9,71.5,277.7,74.1,277.7z"/>
		<path class="st9" d="M79,285.5v-5.8h-1.3V278H79v-2.6h2v2.6h1.6v1.7H81v5.3c0,0.7,0.2,1.1,0.7,1.1c0.3,0,0.6-0.1,0.8-0.3l0.5,1.5
			c-0.4,0.4-0.9,0.6-1.7,0.6C79.7,287.9,79,287.1,79,285.5z"/>
		<path class="st9" d="M84.3,274.3h2v13.3h-2V274.3z"/>
		<path class="st9" d="M89.2,289.8c0.5,0,0.9-0.2,1.1-0.8l0.4-1.2l-3.2-9.9h2.1l2.1,7.3l2.2-7.3H96l-3.8,11.5
			c-0.5,1.6-1.5,2.1-2.8,2.1c-0.3,0-0.8-0.1-1.1-0.1l0.3-1.8C88.8,289.8,89.1,289.8,89.2,289.8z"/>
		<path class="st9" d="M107,280.5l-1.9,7.1H103l-2.6-9.7h2.1l1.7,7l1.8-7h1.8l1.9,7l1.7-7h2.1l-2.6,9.7h-2.1L107,280.5z"/>
		<path class="st9" d="M114.6,275.1c0-0.7,0.6-1.3,1.3-1.3c0.7,0,1.2,0.6,1.2,1.3c0,0.7-0.6,1.2-1.2,1.2
			C115.1,276.4,114.6,275.8,114.6,275.1z M114.8,278h2v9.7h-2V278z"/>
		<path class="st9" d="M119.5,285.5v-5.8h-1.3V278h1.3v-2.6h2v2.6h1.6v1.7h-1.6v5.3c0,0.7,0.2,1.1,0.7,1.1c0.3,0,0.6-0.1,0.8-0.3
			l0.5,1.5c-0.4,0.4-0.9,0.6-1.7,0.6C120.3,287.9,119.5,287.1,119.5,285.5z"/>
		<path class="st9" d="M130.2,281c0-1.1-0.5-1.5-1.4-1.5c-0.8,0-1.6,0.7-2,1.3v6.8h-2v-13.3h2v5c0.5-0.8,1.6-1.5,2.8-1.5
			c1.7,0,2.5,0.9,2.5,2.6v7.3h-2V281z"/>
		<path class="st9" d="M138.9,274.3h2.2v13.3h-2.2V274.3z"/>
		<path class="st9" d="M149.1,286.4c-0.6,1-1.5,1.5-2.5,1.5c-2.2,0-3.5-2-3.5-5.1c0-3.1,1.3-5.1,3.5-5.1c0.9,0,1.9,0.5,2.5,1.5v-5h2
			v13.3h-2V286.4z M149.1,280.8c-0.3-0.7-1.1-1.3-1.9-1.3c-1.4,0-2.1,1.4-2.1,3.3c0,1.8,0.7,3.3,2.1,3.3c0.8,0,1.5-0.6,1.9-1.3
			V280.8z"/>
		<path class="st9" d="M153.5,274.3h4.5c2.6,0,3.9,1.9,3.9,4.1c0,2.2-1.3,4.2-3.9,4.2h-2.3v5h-2.2V274.3z M157.8,276.2h-2.1v4.4h2.1
			c1.2,0,1.9-0.9,1.9-2.2S159,276.2,157.8,276.2z"/>
	</g>
	<g>
		<path class="st9" d="M471.9,236.4v9.2h-2.2v-13.3h2.2l4.8,8.9v-8.9h2.2v13.3h-2.1L471.9,236.4z"/>
		<path class="st9" d="M486.4,232.1c2.2,0,3.5,1.3,4.2,2.8l-1.8,0.8c-0.5-1-1.3-1.7-2.4-1.7c-1.9,0-3.2,1.9-3.2,4.9
			c0,3,1.3,4.9,3.2,4.9c1,0,1.8-0.5,2.2-1v-2.5h-2.8v-1.9h4.9v5.3c-1.1,1.3-2.5,2.1-4.3,2.1c-3.3,0-5.4-2.8-5.4-6.9
			C481,234.8,483.1,232.1,486.4,232.1z"/>
		<path class="st9" d="M493,232.3h2.2v13.3H493V232.3z"/>
		<path class="st9" d="M500,236.4v9.2h-2.2v-13.3h2.2l4.8,8.9v-8.9h2.2v13.3h-2.1L500,236.4z"/>
		<path class="st9" d="M513.7,240.6l-2.7,5.1h-2.6l3.9-6.8l-3.7-6.5h2.5l2.5,4.8l2.5-4.8h2.6l-3.7,6.5l3.9,6.8h-2.6L513.7,240.6z"/>
		<path class="st9" d="M524.6,232.3h4.5c2.6,0,3.9,1.9,3.9,4.1c0,2.2-1.3,4.2-3.9,4.2h-2.3v5h-2.2V232.3z M528.8,234.2h-2.1v4.4h2.1
			c1.2,0,1.9-0.9,1.9-2.2S530,234.2,528.8,234.2z"/>
		<path class="st9" d="M534.7,232.3h2v13.3h-2V232.3z"/>
		<path class="st9" d="M544.4,244.4c-0.5,0.8-1.6,1.5-2.8,1.5c-1.7,0-2.5-0.9-2.5-2.6V236h2v6.6c0,1.1,0.5,1.5,1.4,1.5
			c0.8,0,1.6-0.6,2-1.3V236h2v9.7h-2V244.4z"/>
		<path class="st9" d="M548.9,243.1c0.6,0.6,1.6,1.2,2.6,1.2s1.6-0.5,1.6-1.2c0-0.8-0.8-1.2-1.8-1.5c-1.4-0.5-3-1.1-3-3.1
			c0-1.5,1.2-2.8,3.3-2.8c1.3,0,2.4,0.5,3.2,1.2l-0.8,1.4c-0.5-0.6-1.3-1-2.3-1c-0.9,0-1.5,0.4-1.5,1.1c0,0.7,0.8,1.1,1.8,1.4
			c1.4,0.5,3,1.1,3,3.2c0,1.7-1.3,2.9-3.5,2.9c-1.5,0-2.7-0.5-3.5-1.4L548.9,243.1z"/>
		<path class="st9" d="M418.8,253.3h7.3v1.9h-5.1v3.6h4.9v2h-4.9v3.9h5.1v2h-7.3V253.3z"/>
		<path class="st9" d="M431.2,263.1l-1.9,3.5h-2.2l2.9-4.9l-2.7-4.7h2.2l1.8,3.3l1.8-3.3h2.2l-2.7,4.7l2.9,4.9h-2.2L431.2,263.1z"/>
		<path class="st9" d="M440,256.7c1.4,0,2.4,0.6,2.9,1.3l-1,1.4c-0.5-0.6-1-0.9-1.7-0.9c-1.5,0-2.4,1.5-2.4,3.3
			c0,1.8,0.9,3.3,2.4,3.3c0.7,0,1.2-0.3,1.7-0.9l1,1.4c-0.6,0.7-1.5,1.3-2.9,1.3c-2.6,0-4.2-2.2-4.2-5.1
			C435.8,258.9,437.4,256.7,440,256.7z"/>
		<path class="st9" d="M449.9,260c0-1.1-0.5-1.5-1.4-1.5c-0.8,0-1.6,0.7-2,1.3v6.8h-2v-13.3h2v5c0.5-0.8,1.6-1.5,2.8-1.5
			c1.7,0,2.5,0.9,2.5,2.6v7.3h-2V260z"/>
		<path class="st9" d="M459.3,265.7c-0.6,0.8-1.6,1.2-2.5,1.2c-1.6,0-3-1.2-3-3.2c0-2.1,1.4-3.1,3-3.1c1,0,2,0.4,2.5,1.2v-1.4
			c0-1.2-0.7-1.8-1.9-1.8c-0.9,0-1.7,0.3-2.4,1.1l-0.8-1.4c1-1,2.3-1.4,3.5-1.4c2,0,3.5,0.9,3.5,3.3v6.6h-2V265.7z M459.3,263
			c-0.4-0.7-1.1-1.1-1.8-1.1c-1,0-1.7,0.8-1.7,1.8c0,1,0.6,1.8,1.7,1.8c0.7,0,1.4-0.4,1.8-1.1V263z"/>
		<path class="st9" d="M468.9,260.1c0-1.1-0.5-1.6-1.4-1.6c-0.9,0-1.6,0.7-2,1.3v6.8h-2V257h2v1.3c0.5-0.8,1.6-1.5,2.8-1.5
			c1.7,0,2.5,1,2.5,2.6v7.3h-2V260.1z"/>
		<path class="st9" d="M474,267.8c0.7,0.7,1.5,1.1,2.5,1.1c1.2,0,2.3-0.7,2.3-2.4v-1.4c-0.6,1-1.5,1.6-2.5,1.6c-2.2,0-3.5-1.9-3.5-5
			c0-3.1,1.3-5,3.5-5c0.9,0,1.9,0.5,2.5,1.5V257h2v9.3c0,3.3-2.1,4.3-4.2,4.3c-1.4,0-2.5-0.3-3.4-1.2L474,267.8z M478.8,259.8
			c-0.3-0.7-1.1-1.3-1.9-1.3c-1.4,0-2.1,1.3-2.1,3.2c0,1.8,0.7,3.2,2.1,3.2c0.8,0,1.5-0.6,1.9-1.3V259.8z"/>
		<path class="st9" d="M486.8,256.7c2.6,0,4,2.2,4,5.1v0.6h-6.1c0.1,1.6,1,2.8,2.5,2.8c0.8,0,1.6-0.4,2.2-1l1,1.2
			c-0.8,0.9-2,1.5-3.3,1.5c-2.7,0-4.3-2.1-4.3-5.1C482.7,259,484.2,256.7,486.8,256.7z M484.7,261h4.2c0-1.2-0.6-2.7-2.1-2.7
			C485.3,258.4,484.7,259.9,484.7,261z"/>
		<path class="st9" d="M492.8,264.1c0.6,0.6,1.6,1.2,2.6,1.2s1.6-0.5,1.6-1.2c0-0.8-0.8-1.2-1.8-1.5c-1.4-0.5-3-1.1-3-3.1
			c0-1.5,1.2-2.8,3.3-2.8c1.3,0,2.4,0.5,3.2,1.2l-0.8,1.4c-0.5-0.6-1.3-1-2.3-1c-0.9,0-1.5,0.4-1.5,1.1c0,0.7,0.8,1.1,1.8,1.4
			c1.4,0.5,3,1.1,3,3.2c0,1.7-1.3,2.9-3.5,2.9c-1.5,0-2.7-0.5-3.5-1.4L492.8,264.1z"/>
		<path class="st9" d="M511.4,264h-4.6l-0.7,2.6h-2.3l4-13.3h2.7l4,13.3h-2.3L511.4,264z M507.2,262h3.7l-1.8-6.8L507.2,262z"/>
		<path class="st9" d="M520.8,265.4c-0.5,0.8-1.6,1.5-2.8,1.5c-1.7,0-2.5-0.9-2.5-2.6V257h2v6.6c0,1.1,0.5,1.5,1.4,1.5
			c0.8,0,1.6-0.6,2-1.3V257h2v9.7h-2V265.4z"/>
		<path class="st9" d="M525.5,264.5v-5.8h-1.3V257h1.3v-2.6h2v2.6h1.6v1.7h-1.6v5.3c0,0.7,0.2,1.1,0.7,1.1c0.3,0,0.6-0.1,0.8-0.3
			l0.5,1.5c-0.4,0.4-0.9,0.6-1.7,0.6C526.3,266.9,525.5,266.1,525.5,264.5z"/>
		<path class="st9" d="M536.2,260c0-1.1-0.5-1.5-1.4-1.5c-0.8,0-1.6,0.7-2,1.3v6.8h-2v-13.3h2v5c0.5-0.8,1.6-1.5,2.8-1.5
			c1.7,0,2.5,0.9,2.5,2.6v7.3h-2V260z"/>
		<path class="st9" d="M540.1,261.8c0-2.7,1.4-5.1,4.2-5.1c2.7,0,4.2,2.3,4.2,5.1c0,2.7-1.4,5.1-4.2,5.1
			C541.5,266.9,540.1,264.5,540.1,261.8z M546.4,261.8c0-1.7-0.7-3.3-2.1-3.3c-1.5,0-2.1,1.6-2.1,3.3c0,1.7,0.7,3.3,2.1,3.3
			C545.7,265.1,546.4,263.5,546.4,261.8z"/>
		<path class="st9" d="M550.3,257h2v1.4c0.6-0.9,1.6-1.6,2.7-1.6v2c-0.2,0-0.3-0.1-0.5-0.1c-0.8,0-1.7,0.6-2.1,1.3v6.6h-2V257z"/>
		<path class="st9" d="M556.2,254.1c0-0.7,0.6-1.3,1.3-1.3c0.7,0,1.2,0.6,1.2,1.3c0,0.7-0.6,1.2-1.2,1.2
			C556.8,255.4,556.2,254.8,556.2,254.1z M556.5,257h2v9.7h-2V257z"/>
		<path class="st9" d="M560.4,265.1l3.9-6.4h-3.9V257h6.4v1.5l-3.9,6.5h3.9v1.7h-6.4V265.1z"/>
		<path class="st9" d="M573.8,265.7c-0.6,0.8-1.6,1.2-2.5,1.2c-1.6,0-3-1.2-3-3.2c0-2.1,1.4-3.1,3-3.1c1,0,2,0.4,2.5,1.2v-1.4
			c0-1.2-0.7-1.8-1.9-1.8c-0.9,0-1.7,0.3-2.4,1.1l-0.8-1.4c1-1,2.3-1.4,3.5-1.4c2,0,3.5,0.9,3.5,3.3v6.6h-2V265.7z M573.8,263
			c-0.4-0.7-1.1-1.1-1.8-1.1c-1,0-1.7,0.8-1.7,1.8c0,1,0.6,1.8,1.7,1.8c0.7,0,1.4-0.4,1.8-1.1V263z"/>
		<path class="st9" d="M578.5,264.5v-5.8h-1.3V257h1.3v-2.6h2v2.6h1.6v1.7h-1.6v5.3c0,0.7,0.2,1.1,0.7,1.1c0.3,0,0.6-0.1,0.8-0.3
			l0.5,1.5c-0.4,0.4-0.9,0.6-1.7,0.6C579.2,266.9,578.5,266.1,578.5,264.5z"/>
		<path class="st9" d="M583.5,254.1c0-0.7,0.6-1.3,1.3-1.3c0.7,0,1.2,0.6,1.2,1.3c0,0.7-0.6,1.2-1.2,1.2
			C584.1,255.4,583.5,254.8,583.5,254.1z M583.8,257h2v9.7h-2V257z"/>
		<path class="st9" d="M587.7,261.8c0-2.7,1.4-5.1,4.2-5.1c2.7,0,4.2,2.3,4.2,5.1c0,2.7-1.4,5.1-4.2,5.1
			C589.1,266.9,587.7,264.5,587.7,261.8z M594,261.8c0-1.7-0.7-3.3-2.1-3.3c-1.5,0-2.1,1.6-2.1,3.3c0,1.7,0.7,3.3,2.1,3.3
			C593.3,265.1,594,263.5,594,261.8z"/>
		<path class="st9" d="M603.3,260.1c0-1.1-0.5-1.6-1.4-1.6c-0.9,0-1.6,0.7-2,1.3v6.8h-2V257h2v1.3c0.5-0.8,1.6-1.5,2.8-1.5
			c1.7,0,2.5,1,2.5,2.6v7.3h-2V260.1z"/>
		<path class="st9" d="M444.8,281c0-4,2.1-6.9,5.4-6.9c2.4,0,3.6,1.5,4.3,2.9l-1.8,0.8c-0.5-1.1-1.3-1.8-2.4-1.8
			c-1.9,0-3.1,2.1-3.1,4.9c0,2.8,1.2,4.9,3.1,4.9c1.2,0,2-0.8,2.5-2l1.8,0.8c-0.7,1.6-1.9,3.1-4.3,3.1
			C446.9,287.9,444.8,285,444.8,281z"/>
		<path class="st9" d="M455.6,282.8c0-2.7,1.4-5.1,4.2-5.1c2.7,0,4.2,2.3,4.2,5.1c0,2.7-1.4,5.1-4.2,5.1
			C457.1,287.9,455.6,285.5,455.6,282.8z M461.9,282.8c0-1.7-0.7-3.3-2.1-3.3c-1.5,0-2.1,1.6-2.1,3.3c0,1.7,0.7,3.3,2.1,3.3
			C461.3,286.1,461.9,284.5,461.9,282.8z"/>
		<path class="st9" d="M471.4,286.4c-0.6,1-1.5,1.5-2.5,1.5c-2.2,0-3.5-2-3.5-5.1c0-3.1,1.3-5.1,3.5-5.1c0.9,0,1.9,0.5,2.5,1.5v-5h2
			v13.3h-2V286.4z M471.4,280.8c-0.3-0.7-1.1-1.3-1.9-1.3c-1.4,0-2.1,1.4-2.1,3.3c0,1.8,0.7,3.3,2.1,3.3c0.8,0,1.5-0.6,1.9-1.3
			V280.8z"/>
		<path class="st9" d="M479.4,277.7c2.6,0,4,2.2,4,5.1v0.6h-6.1c0.1,1.6,1,2.8,2.5,2.8c0.8,0,1.6-0.4,2.2-1l1,1.2
			c-0.8,0.9-2,1.5-3.3,1.5c-2.7,0-4.3-2.1-4.3-5.1C475.3,280,476.8,277.7,479.4,277.7z M477.3,282h4.2c0-1.2-0.6-2.7-2.1-2.7
			C477.9,279.4,477.3,280.9,477.3,282z"/>
		<path class="st9" d="M489.9,279.7h-1.3V278h1.3v-0.9c0-1.9,1.1-3,2.6-3c0.6,0,1.1,0.1,1.5,0.3l-0.4,1.5c-0.2-0.1-0.4-0.1-0.6-0.1
			c-0.7,0-1.1,0.4-1.1,1.3v0.9h1.6v1.7h-1.6v7.9h-2V279.7z"/>
		<path class="st9" d="M494.5,282.8c0-2.7,1.4-5.1,4.2-5.1c2.7,0,4.2,2.3,4.2,5.1c0,2.7-1.4,5.1-4.2,5.1
			C495.9,287.9,494.5,285.5,494.5,282.8z M500.8,282.8c0-1.7-0.7-3.3-2.1-3.3c-1.5,0-2.1,1.6-2.1,3.3c0,1.7,0.7,3.3,2.1,3.3
			C500.1,286.1,500.8,284.5,500.8,282.8z"/>
		<path class="st9" d="M504.7,278h2v1.4c0.6-0.9,1.6-1.6,2.7-1.6v2c-0.2,0-0.3-0.1-0.5-0.1c-0.8,0-1.7,0.6-2.1,1.3v6.6h-2V278z"/>
		<path class="st9" d="M515.2,274.3h2.2v13.3h-2.2V274.3z"/>
		<path class="st9" d="M520,274.3h4c3.6,0,5.6,2.8,5.6,6.7s-2,6.7-5.6,6.7h-4V274.3z M524,285.7c2.2,0,3.3-2,3.3-4.7
			c0-2.8-1.1-4.7-3.3-4.7h-1.8v9.4H524z"/>
		<path class="st9" d="M538.1,276.2h-3.1v-1.9h8.3v1.9h-3.1v11.4h-2.2V276.2z"/>
		<path class="st9" d="M543,282.8c0-2.7,1.4-5.1,4.2-5.1c2.7,0,4.2,2.3,4.2,5.1c0,2.7-1.4,5.1-4.2,5.1
			C544.4,287.9,543,285.5,543,282.8z M549.3,282.8c0-1.7-0.7-3.3-2.1-3.3c-1.5,0-2.1,1.6-2.1,3.3c0,1.7,0.7,3.3,2.1,3.3
			C548.6,286.1,549.3,284.5,549.3,282.8z"/>
		<path class="st9" d="M556.4,283.6l-1.2,1.6v2.5h-2v-13.3h2v8.4l3.4-4.7h2.3l-3.2,4.3l3.3,5.3h-2.3L556.4,283.6z"/>
		<path class="st9" d="M565.7,277.7c2.6,0,4,2.2,4,5.1v0.6h-6.1c0.1,1.6,1,2.8,2.5,2.8c0.8,0,1.6-0.4,2.2-1l1,1.2
			c-0.8,0.9-2,1.5-3.3,1.5c-2.7,0-4.3-2.1-4.3-5.1C561.5,280,563.1,277.7,565.7,277.7z M563.5,282h4.2c0-1.2-0.6-2.7-2.1-2.7
			C564.1,279.4,563.6,280.9,563.5,282z"/>
		<path class="st9" d="M576.8,281.1c0-1.1-0.5-1.6-1.4-1.6c-0.9,0-1.6,0.7-2,1.3v6.8h-2V278h2v1.3c0.5-0.8,1.6-1.5,2.8-1.5
			c1.7,0,2.5,1,2.5,2.6v7.3h-2V281.1z"/>
	</g>
	<g>
		<path class="st9" d="M499.7,478.6h2.4v14.7h-2.4V478.6z"/>
		<path class="st9" d="M510.9,491.9c-0.6,1.1-1.7,1.7-2.7,1.7c-2.4,0-3.9-2.2-3.9-5.6c0-3.4,1.5-5.6,3.9-5.6c1,0,2.1,0.6,2.7,1.7
			v-5.5h2.2v14.7h-2.2V491.9z M510.9,485.8c-0.4-0.8-1.2-1.5-2.1-1.5c-1.5,0-2.3,1.6-2.3,3.7c0,2,0.7,3.6,2.3,3.6
			c0.8,0,1.7-0.7,2.1-1.5V485.8z"/>
		<path class="st9" d="M515.8,478.6h5c2.9,0,4.3,2.1,4.3,4.6c0,2.5-1.5,4.6-4.3,4.6h-2.6v5.5h-2.4V478.6z M520.5,480.8h-2.3v4.8h2.3
			c1.3,0,2.1-1,2.1-2.4S521.8,480.8,520.5,480.8z"/>
	</g>
	<g>
		<circle class="st10" cx="100" cy="110" r="50"/>
		<g>
			<path class="st8" d="M89.9,121.7c-1.4,0.6-3.8,1.4-8,2.6c-9.7,2.8-11.7,11.1-11.7,11.1h59.6c0,0-1.9-8.7-11.7-11.1
				c-4.3-1-6.7-1.9-8.1-2.6"/>
			<polyline class="st8" points="89.9,121.7 100,135.4 110,121.8 			"/>
			<g>
				<path class="st8" d="M117.4,120.2H106c4.8-2.9,7.6-9,8.3-16.2c0.4-3.9-0.4-8.7-0.4-8.7s-1.2-11.4-8.7-11.4
					c-7.5,0-10.4,6.1-20.4,7L82.3,91c0.9,0,1.7,0,2.5-0.1l1.8-0.1c-0.5,1.8-0.7,6.3-0.7,6.3v2c0,7.2,3.1,18.1,7.8,21H82.3
					c0,0-3.2,0.4-3.2-4.7v-4.7c-0.8-37.5,20.9-35.9,20.9-35.9c25.6-0.4,21.7,39.1,21.7,39.1S122.2,119.8,117.4,120.2z"/>
				<path class="st11" d="M84.8,90.9L82.3,91C83.2,91,84,91,84.8,90.9z"/>
			</g>
		</g>
	</g>
	<g>
		<path class="st12" d="M551.3,150.7h0.6v-1.4h0.5c0.3,0,0.6,0,0.7,0.1c0.2,0.1,0.3,0.4,0.3,0.8v0.3l0,0.1c0,0,0,0,0,0c0,0,0,0,0,0
			h0.6l0,0c0,0,0-0.1,0-0.2c0-0.1,0-0.2,0-0.3V150c0-0.2-0.1-0.4-0.2-0.6c-0.1-0.2-0.3-0.3-0.6-0.4c0.2,0,0.4-0.1,0.5-0.2
			c0.2-0.2,0.4-0.4,0.4-0.7c0-0.5-0.2-0.8-0.6-0.9c-0.2-0.1-0.5-0.1-1-0.1h-1.3V150.7z M553.1,148.8c-0.1,0.1-0.3,0.1-0.6,0.1h-0.6
			v-1.3h0.5c0.4,0,0.6,0.1,0.8,0.1c0.2,0.1,0.2,0.3,0.2,0.5C553.5,148.5,553.4,148.7,553.1,148.8 M555,146.6c-0.6-0.6-1.4-1-2.3-1
			c-0.9,0-1.7,0.3-2.3,1c-0.6,0.6-1,1.4-1,2.3c0,0.9,0.3,1.7,1,2.3c0.6,0.6,1.4,1,2.3,1c0.9,0,1.7-0.3,2.3-1c0.6-0.6,1-1.4,1-2.3
			C555.9,148,555.6,147.2,555,146.6 M554.6,146.9c0.6,0.5,0.8,1.2,0.8,2c0,0.8-0.3,1.5-0.8,2c-0.5,0.6-1.2,0.8-2,0.8
			c-0.8,0-1.5-0.3-2-0.8c-0.5-0.6-0.8-1.2-0.8-2c0-0.8,0.3-1.5,0.8-2c0.6-0.6,1.2-0.8,2-0.8C553.4,146.1,554.1,146.4,554.6,146.9"/>
		<g>
			<g>
				<path class="st13" d="M468.7,135c0.5,0.8,1.1,1.5,1.9,1.9l38.8,22.4l0,0c0.8,0.4,1.6,0.7,2.6,0.7c0.9,0,1.8-0.3,2.6-0.7
					l38.8-22.4c0.8-0.4,1.4-1.1,1.9-1.9c0.5-0.8,0.7-1.7,0.7-2.6V87.6l0,0c0-0.9-0.2-1.8-0.7-2.6c-0.5-0.8-1.1-1.5-1.9-1.9
					l-38.8-22.4v0c-0.8-0.4-1.6-0.7-2.6-0.7c-0.9,0-1.8,0.3-2.6,0.7v0l-38.8,22.4c-0.8,0.4-1.4,1.1-1.9,1.9
					c-0.5,0.8-0.7,1.7-0.7,2.6l0,0v44.8C468,133.3,468.2,134.2,468.7,135"/>
			</g>
			<g>
				<path class="st14" d="M504.5,124.6c1.3,1.6,3.5,2.4,5.3,2.4c2.6,0,4.4-1.7,4.4-3.8V96.4c0-2.1-1.7-3.8-3.8-3.8h-0.1
					c-2.1,0-3.9,1.8-3.9,3.9l0,19.1c0,0.1-0.1,0.1-0.2,0.1L489,95c-1.3-1.6-3.5-2.4-5.3-2.4c-2.6,0-4.4,1.7-4.4,3.8l0,26.8
					c0,2.1,1.7,3.8,3.8,3.8h0.1c2.1,0,3.9-1.8,3.9-3.9V104c0-0.1,0.1-0.1,0.2-0.1L504.5,124.6z"/>
				<path class="st14" d="M544.2,107.5h-8c-0.1,0-0.1,0-0.1-0.1v-8c0-1.8-1.5-3.4-3.4-3.4c-1.8,0-3.4,1.5-3.4,3.4v6.5v0.8v0.4
					c0,0.2-0.2,0.4-0.4,0.4h-0.5h-0.7H521c-1.8,0-3.4,1.5-3.4,3.4s1.5,3.4,3.4,3.4h8.3c0.1,0,0.1,0,0.1,0.1v8c0,1.8,1.5,3.4,3.4,3.4
					c1.8,0,3.4-1.5,3.4-3.4v-6.5v-0.8v-0.4c0-0.2,0.2-0.4,0.4-0.4h0.2h1h6.5c1.8,0,3.4-1.5,3.4-3.4S546.1,107.5,544.2,107.5"/>
			</g>
		</g>
	</g>
	<g>
		<path class="st15" d="M958,60h-68c-8.8,0-16,7.2-16,16v68c0,8.8,7.2,16,16,16h68c8.8,0,16-7.2,16-16V76C974,67.2,966.8,60,958,60z
			"/>
		<line class="st16" x1="874" y1="86.9" x2="974" y2="86.9"/>
		<g>
			<circle class="st13" cx="893.3" cy="73.4" r="3.8"/>
			<circle class="st13" cx="915.5" cy="73.4" r="3.8"/>
			<circle class="st13" cx="904.4" cy="73.4" r="3.8"/>
		</g>
	</g>
	<path class="st10" d="M550.6,414.7c-5.9,14.8-20.3,25.3-37.2,25.3c-22.1,0-40-17.9-40-40s17.9-40,40-40c16.9,0,31.4,10.5,37.2,25.3
		"/>
	<g>
		<path class="st8" d="M505.7,408.7c-1.1,0.5-2.9,1.1-6.1,2c-7.4,2.1-8.9,8.4-8.9,8.4H536c0,0-1.4-6.6-8.9-8.4
			c-3.3-0.8-5.1-1.4-6.1-2"/>
		<polyline class="st8" points="505.7,408.7 513.4,419.1 521,408.7 		"/>
		<g>
			<path class="st8" d="M526.6,407.6h-8.7c3.6-2.2,5.7-6.8,6.3-12.3c0.3-3-0.3-6.6-0.3-6.6s-0.9-8.7-6.6-8.7
				c-5.7,0-7.9,4.6-15.5,5.3l-1.9,0.1c0.7,0,1.3,0,1.9-0.1l1.4-0.1c-0.4,1.4-0.5,4.8-0.5,4.8v1.5c0,5.5,2.3,13.8,6,16H500
				c0,0-2.4,0.3-2.4-3.6v-3.6c-0.6-28.5,15.9-27.3,15.9-27.3c19.5-0.3,16.5,29.7,16.5,29.7S530.2,407.3,526.6,407.6z"/>
			<path class="st11" d="M501.8,385.3l-1.9,0.1C500.6,385.4,501.2,385.3,501.8,385.3z"/>
		</g>
	</g>
	<g>
		<circle class="st10" cx="550.6" cy="400" r="14.7"/>
		<polyline class="st17" points="543.7,400.5 548.7,405.5 557.4,394.4 		"/>
	</g>
	<g>
		<g>
			<line class="st8" x1="160.5" y1="125" x2="165.4" y2="120.1"/>
			<line class="st8" x1="160.5" y1="125" x2="165.4" y2="129.9"/>
		</g>
		<line class="st8" x1="160.5" y1="125" x2="248.5" y2="125"/>
	</g>
	<line class="st8" x1="349.3" y1="125" x2="437.3" y2="125"/>
	<line class="st7" x1="587" y1="110" x2="683.1" y2="110"/>
	<line class="st7" x1="767.9" y1="110" x2="864" y2="110"/>
	<path class="st8" d="M120,400c-11,0-20-9-20-20"/>
	<g>
		<line class="st8" x1="100" y1="169.7" x2="104.9" y2="174.6"/>
		<line class="st8" x1="100" y1="169.7" x2="95.1" y2="174.6"/>
	</g>
	<line class="st8" x1="100" y1="169.7" x2="100" y2="227.3"/>
	<line class="st8" x1="100" y1="292.7" x2="100" y2="380"/>
	<g>
		<path class="st9" d="M253.5,119h2v8c0,1.6,0.8,2.5,2.2,2.5s2.2-0.9,2.2-2.5v-8h2v8c0,2.7-1.6,4.2-4.2,4.2s-4.2-1.5-4.2-4.2V119z"
			/>
		<path class="st9" d="M268.9,125c0-1-0.5-1.4-1.2-1.4s-1.4,0.6-1.8,1.2v6.1H264v-8.7h1.8v1.2c0.5-0.7,1.4-1.4,2.5-1.4
			c1.6,0,2.3,0.9,2.3,2.4v6.6h-1.8V125z"/>
		<path class="st9" d="M277.3,130.1c-0.5,0.7-1.4,1.1-2.3,1.1c-1.4,0-2.7-1-2.7-2.9c0-1.9,1.3-2.8,2.7-2.8c0.9,0,1.8,0.3,2.3,1v-1.3
			c0-1-0.6-1.7-1.7-1.7c-0.8,0-1.5,0.3-2.2,1l-0.7-1.3c0.9-0.9,2.1-1.3,3.2-1.3c1.8,0,3.2,0.8,3.2,3v5.9h-1.8V130.1z M277.3,127.7
			c-0.3-0.6-1-1-1.6-1c-0.9,0-1.5,0.7-1.5,1.6c0,0.9,0.6,1.6,1.5,1.6c0.6,0,1.3-0.4,1.6-1V127.7z"/>
		<path class="st9" d="M286,129.8c-0.5,0.7-1.4,1.4-2.5,1.4c-1.5,0-2.3-0.8-2.3-2.3v-6.6h1.8v5.9c0,1,0.5,1.4,1.2,1.4
			c0.8,0,1.4-0.6,1.8-1.2v-6.1h1.8v8.7H286V129.8z"/>
		<path class="st9" d="M290.2,129v-5.2h-1.1v-1.6h1.1v-2.4h1.8v2.4h1.4v1.6H292v4.8c0,0.6,0.2,1,0.7,1c0.3,0,0.6-0.1,0.7-0.3
			l0.4,1.4c-0.3,0.3-0.8,0.5-1.6,0.5C290.9,131.2,290.2,130.4,290.2,129z"/>
		<path class="st9" d="M299.8,125c0-1-0.5-1.4-1.3-1.4c-0.8,0-1.4,0.6-1.8,1.2v6.1H295v-12h1.8v4.5c0.5-0.7,1.5-1.4,2.5-1.4
			c1.5,0,2.3,0.8,2.3,2.3v6.6h-1.8V125z"/>
		<path class="st9" d="M303.3,126.6c0-2.4,1.3-4.6,3.8-4.6c2.5,0,3.8,2.1,3.8,4.6s-1.3,4.6-3.8,4.6
			C304.6,131.2,303.3,129.1,303.3,126.6z M309,126.6c0-1.6-0.6-3-1.9-3c-1.3,0-1.9,1.4-1.9,3s0.6,3,1.9,3
			C308.4,129.6,309,128.2,309,126.6z"/>
		<path class="st9" d="M312.5,122.3h1.8v1.3c0.5-0.8,1.4-1.5,2.4-1.5v1.8c-0.1,0-0.3-0.1-0.5-0.1c-0.7,0-1.6,0.6-1.9,1.2v6h-1.8
			V122.3z"/>
		<path class="st9" d="M317.8,119.7c0-0.6,0.5-1.1,1.1-1.1c0.6,0,1.1,0.5,1.1,1.1c0,0.6-0.5,1.1-1.1,1.1
			C318.4,120.8,317.8,120.3,317.8,119.7z M318.1,122.3h1.8v8.7h-1.8V122.3z"/>
		<path class="st9" d="M321.6,129.6l3.5-5.8h-3.5v-1.6h5.7v1.3l-3.5,5.8h3.5v1.6h-5.8V129.6z"/>
		<path class="st9" d="M332.5,122.1c2.4,0,3.6,2,3.6,4.6v0.5h-5.5c0.1,1.4,0.9,2.5,2.3,2.5c0.7,0,1.5-0.3,2-0.9l0.9,1.1
			c-0.7,0.8-1.8,1.3-3,1.3c-2.4,0-3.9-1.9-3.9-4.6C328.7,124.1,330.1,122.1,332.5,122.1z M330.5,125.9h3.8c0-1.1-0.5-2.4-1.9-2.4
			C331.1,123.5,330.6,124.9,330.5,125.9z"/>
		<path class="st9" d="M342.7,129.8c-0.5,0.9-1.4,1.4-2.2,1.4c-1.9,0-3.2-1.8-3.2-4.6c0-2.8,1.2-4.6,3.2-4.6c0.8,0,1.7,0.5,2.2,1.4
			V119h1.8v12h-1.8V129.8z M342.7,124.8c-0.3-0.6-1-1.2-1.7-1.2c-1.2,0-1.9,1.3-1.9,3c0,1.7,0.6,3,1.9,3c0.7,0,1.4-0.5,1.7-1.2
			V124.8z"/>
	</g>
	<g>
		<path class="st9" d="M694.8,113.5h-4.1l-0.6,2.4H688l3.6-12h2.4l3.6,12h-2.1L694.8,113.5z M691.1,111.7h3.3l-1.7-6.1L691.1,111.7z
			"/>
		<path class="st9" d="M703.3,114.7c-0.5,0.7-1.4,1.4-2.5,1.4c-1.5,0-2.3-0.8-2.3-2.3v-6.6h1.8v5.9c0,1,0.5,1.4,1.2,1.4
			c0.8,0,1.4-0.6,1.8-1.2v-6.1h1.8v8.7h-1.8V114.7z"/>
		<path class="st9" d="M707.6,113.9v-5.2h-1.1v-1.6h1.1v-2.4h1.8v2.4h1.4v1.6h-1.4v4.8c0,0.6,0.2,1,0.7,1c0.3,0,0.6-0.1,0.7-0.3
			l0.4,1.4c-0.3,0.3-0.8,0.5-1.6,0.5C708.2,116.1,707.6,115.4,707.6,113.9z"/>
		<path class="st9" d="M717.2,109.9c0-1-0.5-1.4-1.3-1.4c-0.8,0-1.4,0.6-1.8,1.2v6.1h-1.8v-12h1.8v4.5c0.5-0.7,1.5-1.4,2.5-1.4
			c1.5,0,2.3,0.8,2.3,2.3v6.6h-1.8V109.9z"/>
		<path class="st9" d="M720.7,111.5c0-2.4,1.3-4.6,3.8-4.6s3.8,2.1,3.8,4.6s-1.3,4.6-3.8,4.6S720.7,114,720.7,111.5z M726.3,111.5
			c0-1.6-0.6-3-1.9-3s-1.9,1.4-1.9,3s0.6,3,1.9,3S726.3,113.1,726.3,111.5z"/>
		<path class="st9" d="M729.9,107.2h1.8v1.3c0.5-0.8,1.4-1.5,2.4-1.5v1.8c-0.1,0-0.3-0.1-0.5-0.1c-0.7,0-1.6,0.6-1.9,1.2v6h-1.8
			V107.2z"/>
		<path class="st9" d="M735.2,104.6c0-0.6,0.5-1.1,1.1-1.1s1.1,0.5,1.1,1.1c0,0.6-0.5,1.1-1.1,1.1S735.2,105.2,735.2,104.6z
			 M735.4,107.2h1.8v8.7h-1.8V107.2z"/>
		<path class="st9" d="M739,114.5l3.5-5.8H739v-1.6h5.7v1.3l-3.5,5.8h3.5v1.6H739V114.5z"/>
		<path class="st9" d="M749.8,107c2.4,0,3.6,2,3.6,4.6v0.5h-5.5c0.1,1.4,0.9,2.5,2.3,2.5c0.7,0,1.5-0.3,2-0.9l0.9,1.1
			c-0.7,0.8-1.8,1.3-3,1.3c-2.4,0-3.9-1.9-3.9-4.6C746.1,109,747.5,107,749.8,107z M747.9,110.8h3.8c0-1.1-0.5-2.4-1.9-2.4
			C748.4,108.4,747.9,109.8,747.9,110.8z"/>
		<path class="st9" d="M760,114.7c-0.5,0.9-1.4,1.4-2.2,1.4c-1.9,0-3.2-1.8-3.2-4.6c0-2.8,1.2-4.6,3.2-4.6c0.8,0,1.7,0.5,2.2,1.4
			v-4.5h1.8v12H760V114.7z M760,109.7c-0.3-0.6-1-1.2-1.7-1.2c-1.2,0-1.9,1.3-1.9,3c0,1.7,0.6,3,1.9,3c0.7,0,1.4-0.5,1.7-1.2V109.7z
			"/>
	</g>
</g>
<g id="Layer_1">
</g>
</svg>
